<?xml version="1.0" standalone="no"?><!DOCTYPE svg PUBLIC "-//W3C//DTD SVG 1.1//EN" "http://www.w3.org/Graphics/SVG/1.1/DTD/svg11.dtd"><svg t="1587013500640" class="icon" viewBox="0 0 1024 1024" version="1.1" xmlns="http://www.w3.org/2000/svg" p-id="2253" xmlns:xlink="http://www.w3.org/1999/xlink" width="200" height="200"><defs><style type="text/css"></style></defs><path d="M957.134103 489.311255c0-54.122665-43.868113-97.988732-97.991802-97.988732-48.116881 0-88.015589 34.68394-96.346325 80.418564-5.838985-32.18912-27.375487-58.826803-56.33403-71.861678 0.820692 6.517437 1.38658 13.09218 1.38658 19.778462 0 0 5.469572 117.258611-78.039377 228.511437 28.817326 32.644491 71.013357 63.24851 132.985804 83.59593C965.464839 665.341411 957.134103 489.311255 957.134103 489.311255z" p-id="2254"></path><path d="M683.622776 416.655492c0-6.743588-0.568958-13.261025-1.360997-19.778462-9.746992-76.509535-74.922387-135.737474-154.153916-135.737474-76.312036 0-139.64548 55.089689-152.851247 127.57456-13.147438-72.484871-76.509535-127.57456-152.851247-127.57456-85.859483 0-155.512866 69.598124-155.512866 155.514913 0 0-13.177114 279.349289 308.364113 384.763131 113.263623-37.121456 184.92985-95.838765 230.324736-156.306952C689.118953 533.858844 683.622776 416.655492 683.622776 416.655492zM587.729775 633.150244c-17.001209 22.61302-38.114063 44.944632-64.325028 65.686025 11.957333-12.126178 22.61302-24.481577 31.965016-36.950564 77.359902-102.976326 72.200392-211.510228 72.200392-211.510228 0-6.1777-0.452301-12.298094-1.24434-18.303878-9.012258-70.842465-69.371974-125.647675-142.648884-125.647675-14.737656 0-28.904307 2.323928-42.222637 6.459109 22.044062-14.734586 48.455595-23.405059 76.907601-23.405059 70.897723 0 129.272225 53.046147 137.945769 121.509425 0.73678 5.837962 1.245364 11.673877 1.245364 17.682731C657.55098 428.671153 662.48434 533.632693 587.729775 633.150244z" p-id="2255"></path></svg>