<?xml version="1.0" standalone="no"?><!DOCTYPE svg PUBLIC "-//W3C//DTD SVG 1.1//EN" "http://www.w3.org/Graphics/SVG/1.1/DTD/svg11.dtd"><svg t="1588222035720" class="icon" viewBox="0 0 1024 1024" version="1.1" xmlns="http://www.w3.org/2000/svg" p-id="3557" xmlns:xlink="http://www.w3.org/1999/xlink" width="200" height="200"><defs><style type="text/css"></style></defs><path d="M124.724141 385.850905c40.688701 47.000454 65.103764 74.873268 73.241095 83.680864 5.406127 11.770068 6.738471 20.574594 4.072759 26.427906-2.737344 5.918803-9.538237 5.918803-20.349467 0-35.283598-11.69946-66.500577-22.022573-93.587492-30.830169-29.878494-5.849218-36.620036-24.912389-20.341281-57.256028C86.702176 378.555755 105.712135 371.192044 124.724141 385.850905zM267.138688 588.450183c8.139378-11.698436 16.277732-16.101723 24.415063-13.20986 5.405103 5.918803 5.405103 16.170285 0 30.831192-13.606903 17.61724-31.216979 47.000454-52.898791 88.084151-29.881564 49.963948-51.560306 85.196381-65.10274 105.70446-19.012006 26.428929-40.687678 26.428929-65.10581 0-29.883611-29.314653-31.214932-49.895387-4.070712-61.660338C150.472572 711.773929 204.703707 661.881612 267.138688 588.450183zM169.484577 130.397862c29.816073 29.385261 54.229089 55.81112 73.240071 79.277578 5.403057 11.770068 5.403057 22.022573 0 30.829146-5.467525 5.919826-12.204973 5.919826-20.345374 0-43.420929-20.507056-75.974345-36.677341-97.655134-48.446385-29.879518-8.806573-33.95023-27.871791-12.20702-57.256028C131.462612 117.185956 150.472572 115.740024 169.484577 130.397862zM755.425613 165.631318c27.084868 0 37.95545 20.576641 32.553417 61.662385-29.883611 158.557202-63.767326 264.259616-101.726869 317.112358-5.469572 11.771091-2.733251 20.578688 8.138354 26.430976 143.749962 132.129296 236.002039 202.600301 276.694833 211.408921 10.809183 5.919826 16.272615 11.763928 16.272615 17.615193 0 5.91778-4.066619 10.327206-12.20395 13.216-73.242118 44.045145-123.468033 44.045145-150.553924 0-19.009959-20.511149-39.35738-44.044122-61.036122-70.474075-29.883611-38.123272-65.107857-82.166371-105.799628-132.12725-8.133238-8.80555-14.939247-8.80555-20.341281 0-78.712713 91.049692-164.163897 146.857742-256.352529 167.365822-48.828079 11.766998-81.381495 10.326183-97.656157-4.402263-13.605879-17.621333-9.537214-33.726126 12.208043-48.449455 138.346905-23.467481 241.406119-73.362868 309.24825-149.748582 5.40101-2.891863 5.40101-10.254551 0-22.022573-73.242118-70.471005-128.876206-118.918413-166.833703-145.344273-16.276708-14.657838-16.276708-27.872814 0-39.639812 18.944468-11.698436 39.290865-8.80862 61.039191 8.80862 8.137331 8.807596 20.341281 22.022573 36.619012 39.638789 46.095851 47.000454 78.646198 79.278601 97.655134 96.894817 8.140401 11.771091 14.879895 10.326183 20.349467-4.403287 35.222199-64.553225 58.297754-140.938939 69.169359-229.027184 2.670829-41.081651-14.937201-64.551178-52.892651-70.469981-108.531855 2.959402-189.914374 14.728446-244.144486 35.235502-29.882588 8.80862-40.691771-4.406356-32.55444-39.638789 13.542434-26.425859 35.224246-39.639812 65.106834-39.639812C556.042587 165.631318 655.033136 165.631318 755.425613 165.631318z" p-id="3558" fill="#ffffff"></path></svg>