<?xml version="1.0" standalone="no"?><!DOCTYPE svg PUBLIC "-//W3C//DTD SVG 1.1//EN" "http://www.w3.org/Graphics/SVG/1.1/DTD/svg11.dtd"><svg t="1589335014844" class="icon" viewBox="0 0 1024 1024" version="1.1" xmlns="http://www.w3.org/2000/svg" p-id="1327" xmlns:xlink="http://www.w3.org/1999/xlink" width="200" height="200"><defs><style type="text/css"></style></defs><path d="M272.74666667 647.57333333H489.6v54.22933334H272.74666667zM408.32 295.14666667v-81.28H354.13333333v81.28h-81.38666666v54.18666666H354.13333333v81.38666667h54.18666667v-81.38666667H489.6v-54.18666666z m0 0M272.74666667 512H489.6v54.19733333H272.74666667zM733.54666667 647.57333333h54.18666666v54.21866667h-54.18666666z" fill="#ffffff" p-id="1328"></path><path d="M844.26666667 376.42666667h-192v-212.26666667c0-55.78666667-24.85333333-85.86666667-81.28-85.86666667H193.70666667c-57.17333333 0-83.62666667 31.57333333-83.62666667 81.28v786.13333334h813.22666667V455.46666667c0-53.44-25.6-79.04-79.04-79.04z m-246.18666667 0v515.09333333H489.6V783.04H272.74666667v108.48H164.37333333V186.66666667c0-29.33333333 20.26666667-54.18666667 54.18666667-54.18666667h325.33333333c29.33333333 0 54.18666667 24.85333333 54.18666667 54.18666667v189.76z m271.04 515.09333333h-81.28V783.04h-54.29333333v108.48h-81.28v-460.8H814.93333333c27.09333333 0 54.18666667 24.85333333 54.18666667 54.18666667v406.61333333z m0 0" fill="#ffffff" p-id="1329"></path><path d="M733.54666667 512h54.18666666v54.19733333h-54.18666666z" fill="#ffffff" p-id="1330"></path></svg>