<?xml version="1.0" standalone="no"?><!DOCTYPE svg PUBLIC "-//W3C//DTD SVG 1.1//EN" "http://www.w3.org/Graphics/SVG/1.1/DTD/svg11.dtd"><svg t="1587013400159" class="icon" viewBox="0 0 1024 1024" version="1.1" xmlns="http://www.w3.org/2000/svg" p-id="1457" xmlns:xlink="http://www.w3.org/1999/xlink" width="200" height="200"><defs><style type="text/css"></style></defs><path d="M778.6 436.8l-47.9-3.4-279.5-327.3C429.2 78 407.9 64 387.4 64h-38.7l177 378.3-245.6 18.2-96-107.4h-74.4l98.4 150.5-98.2 165.3h74.3l95.9-107.4 245.6 18.2-177 380.3h38.7c20.5 0 41.8-14.1 63.8-42.1l279.4-327.1 47.9-3.4c11.4-1.5 21.9-2.9 31.4-3.9 9.5-1.2 21.9-3.6 37-7.5 15.2-3.7 30.2-11.7 45-23.9s22.3-25.5 22.3-39.9c0.1-42.8-45.2-67.8-135.6-75.4z" p-id="1458"></path></svg>